<?xml version="1.0" encoding="UTF-8" standalone="no"?>
<!DOCTYPE svg PUBLIC "-//W3C//DTD SVG 1.1//EN"
 "http://www.w3.org/Graphics/SVG/1.1/DTD/svg11.dtd">
<!-- Generated by graphviz version 10.0.1 (0)
 -->
<!-- Title: G Pages: 1 -->
<svg width="961pt" height="166pt"
 viewBox="0.00 0.00 960.81 166.00" xmlns="http://www.w3.org/2000/svg" xmlns:xlink="http://www.w3.org/1999/xlink">
<g id="graph0" class="graph" transform="scale(1 1) rotate(0) translate(4 162)">
<title>G</title>
<polygon fill="white" stroke="none" points="-4,4 -4,-162 956.81,-162 956.81,4 -4,4"/>
<g id="clust1" class="cluster">
<title>cluster_proc_macro</title>
<polygon fill="none" stroke="black" points="203.01,-8 203.01,-150 617.37,-150 617.37,-8 203.01,-8"/>
<text text-anchor="middle" x="410.19" y="-132.7" font-family="Times,serif" font-size="14.00">proc macro</text>
</g>
<g id="clust2" class="cluster">
<title>cluster_backend</title>
<polygon fill="none" stroke="black" points="425.87,-28 425.87,-105 609.37,-105 609.37,-28 425.87,-28"/>
<text text-anchor="middle" x="517.62" y="-87.7" font-family="Times,serif" font-size="14.00">backend</text>
</g>
<!-- egglog Rules -->
<g id="node1" class="node">
<title>egglog Rules</title>
<ellipse fill="none" stroke="black" cx="97.51" cy="-99" rx="75.94" ry="18"/>
<text text-anchor="middle" x="97.51" y="-94.33" font-family="Times,serif" font-size="14.00">egglog Rules</text>
</g>
<!-- frontend -->
<g id="node2" class="node">
<title>frontend</title>
<polygon fill="none" stroke="black" points="288.51,-84 211.01,-84 211.01,-48 288.51,-48 288.51,-84"/>
<text text-anchor="middle" x="249.76" y="-61.33" font-family="Times,serif" font-size="14.00">frontend</text>
</g>
<!-- egglog Rules&#45;&gt;frontend -->
<g id="edge1" class="edge">
<title>egglog Rules&#45;&gt;frontend</title>
<path fill="none" stroke="black" d="M154.46,-86.71C169.2,-83.47 185.01,-80 199.38,-76.85"/>
<polygon fill="black" stroke="black" points="200.06,-80.28 209.08,-74.72 198.56,-73.44 200.06,-80.28"/>
</g>
<!-- Functions -->
<g id="node4" class="node">
<title>Functions</title>
<ellipse fill="none" stroke="black" cx="357.19" cy="-34" rx="60.68" ry="18"/>
<text text-anchor="middle" x="357.19" y="-29.32" font-family="Times,serif" font-size="14.00">Functions</text>
</g>
<!-- frontend&#45;&gt;Functions -->
<g id="edge3" class="edge">
<title>frontend&#45;&gt;Functions</title>
<path fill="none" stroke="black" d="M288.82,-54.45C293.34,-53.08 298,-51.66 302.68,-50.24"/>
<polygon fill="black" stroke="black" points="303.54,-53.64 312.09,-47.39 301.5,-46.94 303.54,-53.64"/>
</g>
<!-- Rules -->
<g id="node5" class="node">
<title>Rules</title>
<ellipse fill="none" stroke="black" cx="357.19" cy="-99" rx="39.11" ry="18"/>
<text text-anchor="middle" x="357.19" y="-94.33" font-family="Times,serif" font-size="14.00">Rules</text>
</g>
<!-- frontend&#45;&gt;Rules -->
<g id="edge4" class="edge">
<title>frontend&#45;&gt;Rules</title>
<path fill="none" stroke="black" d="M288.82,-77.91C296.77,-80.4 305.2,-83.04 313.31,-85.58"/>
<polygon fill="black" stroke="black" points="312.06,-88.85 322.65,-88.5 314.15,-82.17 312.06,-88.85"/>
</g>
<!-- egglog Functions -->
<g id="node3" class="node">
<title>egglog Functions</title>
<ellipse fill="none" stroke="black" cx="97.51" cy="-34" rx="97.51" ry="18"/>
<text text-anchor="middle" x="97.51" y="-29.32" font-family="Times,serif" font-size="14.00">egglog Functions</text>
</g>
<!-- egglog Functions&#45;&gt;frontend -->
<g id="edge2" class="edge">
<title>egglog Functions&#45;&gt;frontend</title>
<path fill="none" stroke="black" d="M162.66,-47.66C175.12,-50.32 187.98,-53.05 199.84,-55.58"/>
<polygon fill="black" stroke="black" points="198.88,-58.95 209.39,-57.61 200.34,-52.11 198.88,-58.95"/>
</g>
<!-- optimizer -->
<g id="node6" class="node">
<title>optimizer</title>
<polygon fill="none" stroke="black" points="518.12,-72 433.87,-72 433.87,-36 518.12,-36 518.12,-72"/>
<text text-anchor="middle" x="475.99" y="-49.33" font-family="Times,serif" font-size="14.00">optimizer</text>
</g>
<!-- Functions&#45;&gt;optimizer -->
<g id="edge5" class="edge">
<title>Functions&#45;&gt;optimizer</title>
<path fill="none" stroke="black" d="M410.44,-42.95C414.45,-43.63 418.5,-44.33 422.51,-45.01"/>
<polygon fill="black" stroke="black" points="421.71,-48.43 432.16,-46.67 422.89,-41.53 421.71,-48.43"/>
</g>
<!-- Rules&#45;&gt;optimizer -->
<g id="edge6" class="edge">
<title>Rules&#45;&gt;optimizer</title>
<path fill="none" stroke="black" d="M387.97,-87.53C398.63,-83.42 410.99,-78.66 422.98,-74.04"/>
<polygon fill="black" stroke="black" points="423.89,-77.44 431.96,-70.58 421.37,-70.91 423.89,-77.44"/>
</g>
<!-- codegen -->
<g id="node7" class="node">
<title>codegen</title>
<polygon fill="none" stroke="black" points="601.37,-72 526.12,-72 526.12,-36 601.37,-36 601.37,-72"/>
<text text-anchor="middle" x="563.74" y="-49.33" font-family="Times,serif" font-size="14.00">codegen</text>
</g>
<!-- optimizer&#45;&gt;codegen -->
<g id="edge7" class="edge">
<title>optimizer&#45;&gt;codegen</title>
<path fill="none" stroke="black" d="M518.61,-54C518.76,-54 518.91,-54 519.06,-54"/>
<polygon fill="black" stroke="black" points="514.25,-57.5 524.25,-54 514.25,-50.5 514.25,-57.5"/>
</g>
<!-- Rust code -->
<g id="node8" class="node">
<title>Rust code</title>
<ellipse fill="none" stroke="black" cx="686.05" cy="-54" rx="60.68" ry="18"/>
<text text-anchor="middle" x="686.05" y="-49.33" font-family="Times,serif" font-size="14.00">Rust code</text>
</g>
<!-- codegen&#45;&gt;Rust code -->
<g id="edge8" class="edge">
<title>codegen&#45;&gt;Rust code</title>
<path fill="none" stroke="black" d="M601.82,-54C605.78,-54 609.9,-54 614.09,-54"/>
<polygon fill="black" stroke="black" points="613.78,-57.5 623.78,-54 613.78,-50.5 613.78,-57.5"/>
</g>
<!-- rustc -->
<g id="node9" class="node">
<title>rustc</title>
<polygon fill="none" stroke="black" points="808.72,-72 754.72,-72 754.72,-36 808.72,-36 808.72,-72"/>
<text text-anchor="middle" x="781.72" y="-49.33" font-family="Times,serif" font-size="14.00">rustc</text>
</g>
<!-- Rust code&#45;&gt;rustc -->
<g id="edge9" class="edge">
<title>Rust code&#45;&gt;rustc</title>
<path fill="none" stroke="black" d="M747.17,-54C747.32,-54 747.47,-54 747.62,-54"/>
<polygon fill="black" stroke="black" points="742.74,-57.5 752.74,-54 742.74,-50.5 742.74,-57.5"/>
</g>
<!-- final binary -->
<g id="node10" class="node">
<title>final binary</title>
<ellipse fill="none" stroke="black" cx="884.77" cy="-54" rx="68.04" ry="18"/>
<text text-anchor="middle" x="884.77" y="-49.33" font-family="Times,serif" font-size="14.00">final binary</text>
</g>
<!-- rustc&#45;&gt;final binary -->
<g id="edge10" class="edge">
<title>rustc&#45;&gt;final binary</title>
<path fill="none" stroke="black" d="M809.01,-54C809.15,-54 809.3,-54 809.45,-54"/>
<polygon fill="black" stroke="black" points="804.76,-57.5 814.76,-54 804.76,-50.5 804.76,-57.5"/>
</g>
</g>
</svg>
