<?xml version="1.0" encoding="UTF-8" standalone="no"?>
<!DOCTYPE svg PUBLIC "-//W3C//DTD SVG 1.1//EN"
 "http://www.w3.org/Graphics/SVG/1.1/DTD/svg11.dtd">
<!-- Generated by graphviz version 10.0.1 (0)
 -->
<!-- Title: G Pages: 1 -->
<svg width="274pt" height="256pt"
 viewBox="0.00 0.00 274.00 256.00" xmlns="http://www.w3.org/2000/svg" xmlns:xlink="http://www.w3.org/1999/xlink">
<g id="graph0" class="graph" transform="scale(1 1) rotate(0) translate(4 252)">
<title>G</title>
<polygon fill="white" stroke="none" points="-4,4 -4,-252 270,-252 270,4 -4,4"/>
<g id="clust1" class="cluster">
<title>cluster_mul_2_c_1</title>
<path fill="none" stroke="black" d="M110,-128C110,-128 156,-128 156,-128 162,-128 168,-134 168,-140 168,-140 168,-222 168,-222 168,-228 162,-234 156,-234 156,-234 110,-234 110,-234 104,-234 98,-228 98,-222 98,-222 98,-140 98,-140 98,-134 104,-128 110,-128"/>
</g>
<g id="clust2" class="cluster">
<title>cluster_c_1</title>
<path fill="none" stroke="black" d="M20,-188C20,-188 66,-188 66,-188 72,-188 78,-194 78,-200 78,-200 78,-228 78,-228 78,-234 72,-240 66,-240 66,-240 20,-240 20,-240 14,-240 8,-234 8,-228 8,-228 8,-200 8,-200 8,-194 14,-188 20,-188"/>
</g>
<g id="clust3" class="cluster">
<title>cluster_a_1</title>
<path fill="none" stroke="black" d="M20,-8C20,-8 66,-8 66,-8 72,-8 78,-14 78,-20 78,-20 78,-48 78,-48 78,-54 72,-60 66,-60 66,-60 20,-60 20,-60 14,-60 8,-54 8,-48 8,-48 8,-20 8,-20 8,-14 14,-8 20,-8"/>
</g>
<g id="clust4" class="cluster">
<title>cluster_mul_a_c_1</title>
<path fill="none" stroke="black" d="M110,-68C110,-68 156,-68 156,-68 162,-68 168,-74 168,-80 168,-80 168,-108 168,-108 168,-114 162,-120 156,-120 156,-120 110,-120 110,-120 104,-120 98,-114 98,-108 98,-108 98,-80 98,-80 98,-74 104,-68 110,-68"/>
</g>
<g id="clust5" class="cluster">
<title>cluster_lit2_1</title>
<path fill="none" stroke="black" d="M20,-68C20,-68 66,-68 66,-68 72,-68 78,-74 78,-80 78,-80 78,-108 78,-108 78,-114 72,-120 66,-120 66,-120 20,-120 20,-120 14,-120 8,-114 8,-108 8,-108 8,-80 8,-80 8,-74 14,-68 20,-68"/>
</g>
<g id="clust6" class="cluster">
<title>cluster_mul_c_1</title>
<path fill="none" stroke="black" d="M200,-98C200,-98 246,-98 246,-98 252,-98 258,-104 258,-110 258,-110 258,-192 258,-192 258,-198 252,-204 246,-204 246,-204 200,-204 200,-204 194,-204 188,-198 188,-192 188,-192 188,-110 188,-110 188,-104 194,-98 200,-98"/>
</g>
<g id="clust7" class="cluster">
<title>cluster_add_2_1</title>
<path fill="none" stroke="black" d="M110,-8C110,-8 156,-8 156,-8 162,-8 168,-14 168,-20 168,-20 168,-48 168,-48 168,-54 162,-60 156,-60 156,-60 110,-60 110,-60 104,-60 98,-54 98,-48 98,-48 98,-20 98,-20 98,-14 104,-8 110,-8"/>
</g>
<g id="clust8" class="cluster">
<title>cluster_lit1_1</title>
<path fill="none" stroke="black" d="M20,-128C20,-128 66,-128 66,-128 72,-128 78,-134 78,-140 78,-140 78,-168 78,-168 78,-174 72,-180 66,-180 66,-180 20,-180 20,-180 14,-180 8,-174 8,-168 8,-168 8,-140 8,-140 8,-134 14,-128 20,-128"/>
</g>
<!-- c_1 -->
<g id="node1" class="node">
<title>c_1</title>
<polygon fill="none" stroke="black" points="70,-232 16,-232 16,-196 70,-196 70,-232"/>
<text text-anchor="middle" x="43" y="-209.32" font-family="Times,serif" font-size="14.00">c</text>
</g>
<!-- mul_2_c_1 -->
<g id="node2" class="node">
<title>mul_2_c_1</title>
<polygon fill="none" stroke="black" points="160,-172 106,-172 106,-136 160,-136 160,-172"/>
<text text-anchor="middle" x="133" y="-149.32" font-family="Times,serif" font-size="14.00">*</text>
</g>
<!-- c_1&#45;&gt;mul_2_c_1 -->
<g id="edge1" class="edge">
<title>c_1&#45;&gt;mul_2_c_1</title>
<path fill="none" stroke="black" d="M78,-190.82C83.95,-186.76 90.15,-182.53 96.15,-178.44"/>
<polygon fill="black" stroke="black" points="98.07,-181.37 104.37,-172.84 94.13,-175.58 98.07,-181.37"/>
</g>
<!-- c_shift_1_1 -->
<g id="node4" class="node">
<title>c_shift_1_1</title>
<polygon fill="none" stroke="black" points="160,-226 106,-226 106,-190 160,-190 160,-226"/>
<text text-anchor="middle" x="133" y="-203.32" font-family="Times,serif" font-size="14.00">&lt;&lt;</text>
</g>
<!-- c_1&#45;&gt;c_shift_1_1 -->
<g id="edge3" class="edge">
<title>c_1&#45;&gt;c_shift_1_1</title>
<path fill="none" stroke="black" d="M78,-211.68C83.3,-211.32 88.81,-210.94 94.2,-210.58"/>
<polygon fill="black" stroke="black" points="94.37,-214.07 104.11,-209.9 93.89,-207.09 94.37,-214.07"/>
</g>
<!-- mul_a_c_1 -->
<g id="node6" class="node">
<title>mul_a_c_1</title>
<polygon fill="none" stroke="black" points="160,-112 106,-112 106,-76 160,-76 160,-112"/>
<text text-anchor="middle" x="133" y="-89.33" font-family="Times,serif" font-size="14.00">*</text>
</g>
<!-- c_1&#45;&gt;mul_a_c_1 -->
<g id="edge5" class="edge">
<title>c_1&#45;&gt;mul_a_c_1</title>
<path fill="none" stroke="black" d="M75.09,-188C76.12,-186.7 77.1,-185.36 78,-184 93.52,-160.56 82.48,-147.44 98,-124 98.78,-122.82 99.62,-121.65 100.51,-120.51"/>
<polygon fill="black" stroke="black" points="102.88,-123.11 106.99,-113.35 97.69,-118.41 102.88,-123.11"/>
</g>
<!-- mul_c_1 -->
<g id="node10" class="node">
<title>mul_c_1</title>
<polygon fill="none" stroke="black" points="250,-196 196,-196 196,-160 250,-160 250,-196"/>
<text text-anchor="middle" x="223" y="-173.32" font-family="Times,serif" font-size="14.00">*</text>
</g>
<!-- c_1&#45;&gt;mul_c_1 -->
<g id="edge12" class="edge">
<title>c_1&#45;&gt;mul_c_1</title>
<path fill="none" stroke="black" d="M78,-231.19C103.64,-241.68 139.2,-250.82 168,-238 183.2,-231.23 195.92,-217.83 205.18,-205.41"/>
<polygon fill="black" stroke="black" points="207.87,-207.68 210.72,-197.47 202.13,-203.68 207.87,-207.68"/>
</g>
<!-- add_dist_1 -->
<g id="node8" class="node">
<title>add_dist_1</title>
<polygon fill="none" stroke="black" points="250,-142 196,-142 196,-106 250,-106 250,-142"/>
<text text-anchor="middle" x="223" y="-119.33" font-family="Times,serif" font-size="14.00">+</text>
</g>
<!-- mul_2_c_1&#45;&gt;add_dist_1 -->
<g id="edge8" class="edge">
<title>mul_2_c_1&#45;&gt;add_dist_1</title>
<path fill="none" stroke="black" d="M168,-142.41C173.49,-140.54 179.2,-138.59 184.76,-136.7"/>
<polygon fill="black" stroke="black" points="185.85,-140.02 194.18,-133.48 183.59,-133.4 185.85,-140.02"/>
</g>
<!-- lit2_1 -->
<g id="node3" class="node">
<title>lit2_1</title>
<polygon fill="none" stroke="black" points="70,-112 16,-112 16,-76 70,-76 70,-112"/>
<text text-anchor="middle" x="43" y="-89.33" font-family="Times,serif" font-size="14.00">2</text>
</g>
<!-- lit2_1&#45;&gt;mul_2_c_1 -->
<g id="edge2" class="edge">
<title>lit2_1&#45;&gt;mul_2_c_1</title>
<path fill="none" stroke="black" d="M78,-117.18C83.95,-121.24 90.15,-125.47 96.15,-129.56"/>
<polygon fill="black" stroke="black" points="94.13,-132.42 104.37,-135.16 98.07,-126.63 94.13,-132.42"/>
</g>
<!-- add_a_2_1 -->
<g id="node9" class="node">
<title>add_a_2_1</title>
<polygon fill="none" stroke="black" points="160,-52 106,-52 106,-16 160,-16 160,-52"/>
<text text-anchor="middle" x="133" y="-29.32" font-family="Times,serif" font-size="14.00">+</text>
</g>
<!-- lit2_1&#45;&gt;add_a_2_1 -->
<g id="edge9" class="edge">
<title>lit2_1&#45;&gt;add_a_2_1</title>
<path fill="none" stroke="black" d="M78,-70.82C83.95,-66.76 90.15,-62.53 96.15,-58.44"/>
<polygon fill="black" stroke="black" points="98.07,-61.37 104.37,-52.84 94.13,-55.58 98.07,-61.37"/>
</g>
<!-- lit1_1 -->
<g id="node5" class="node">
<title>lit1_1</title>
<polygon fill="none" stroke="black" points="70,-172 16,-172 16,-136 70,-136 70,-172"/>
<text text-anchor="middle" x="43" y="-149.32" font-family="Times,serif" font-size="14.00">1</text>
</g>
<!-- lit1_1&#45;&gt;c_shift_1_1 -->
<g id="edge4" class="edge">
<title>lit1_1&#45;&gt;c_shift_1_1</title>
<path fill="none" stroke="black" d="M78,-174.86C83.85,-178.46 89.96,-182.2 95.87,-185.83"/>
<polygon fill="black" stroke="black" points="93.97,-188.77 104.33,-191.02 97.63,-182.8 93.97,-188.77"/>
</g>
<!-- mul_a_c_1&#45;&gt;add_dist_1 -->
<g id="edge7" class="edge">
<title>mul_a_c_1&#45;&gt;add_dist_1</title>
<path fill="none" stroke="black" d="M168,-105.59C173.49,-107.46 179.2,-109.41 184.76,-111.3"/>
<polygon fill="black" stroke="black" points="183.59,-114.6 194.18,-114.52 185.85,-107.98 183.59,-114.6"/>
</g>
<!-- a_1 -->
<g id="node7" class="node">
<title>a_1</title>
<polygon fill="none" stroke="black" points="70,-52 16,-52 16,-16 70,-16 70,-52"/>
<text text-anchor="middle" x="43" y="-29.32" font-family="Times,serif" font-size="14.00">a</text>
</g>
<!-- a_1&#45;&gt;mul_a_c_1 -->
<g id="edge6" class="edge">
<title>a_1&#45;&gt;mul_a_c_1</title>
<path fill="none" stroke="black" d="M78,-57.18C83.95,-61.24 90.15,-65.47 96.15,-69.56"/>
<polygon fill="black" stroke="black" points="94.13,-72.42 104.37,-75.16 98.07,-66.63 94.13,-72.42"/>
</g>
<!-- a_1&#45;&gt;add_a_2_1 -->
<g id="edge10" class="edge">
<title>a_1&#45;&gt;add_a_2_1</title>
<path fill="none" stroke="black" d="M78,-34C83.3,-34 88.81,-34 94.2,-34"/>
<polygon fill="black" stroke="black" points="94.1,-37.5 104.1,-34 94.1,-30.5 94.1,-37.5"/>
</g>
<!-- add_a_2_1&#45;&gt;mul_c_1 -->
<g id="edge11" class="edge">
<title>add_a_2_1&#45;&gt;mul_c_1</title>
<path fill="none" stroke="black" d="M158.68,-52.35C162.22,-55.88 165.5,-59.81 168,-64 188.29,-98.09 166.83,-117.44 188,-151 188.13,-151.21 188.26,-151.41 188.4,-151.62"/>
<polygon fill="black" stroke="black" points="185.53,-153.65 194.65,-159.05 190.89,-149.14 185.53,-153.65"/>
</g>
</g>
</svg>
