<?xml version="1.0" encoding="UTF-8" standalone="no"?>
<!DOCTYPE svg PUBLIC "-//W3C//DTD SVG 1.1//EN"
 "http://www.w3.org/Graphics/SVG/1.1/DTD/svg11.dtd">
<!-- Generated by graphviz version 12.2.1 (0)
 -->
<!-- Title: G Pages: 1 -->
<svg width="984pt" height="216pt"
 viewBox="0.00 0.00 983.96 216.00" xmlns="http://www.w3.org/2000/svg" xmlns:xlink="http://www.w3.org/1999/xlink">
<g id="graph0" class="graph" transform="scale(1 1) rotate(0) translate(4 212)">
<title>G</title>
<polygon fill="white" stroke="none" points="-4,4 -4,-212 979.96,-212 979.96,4 -4,4"/>
<g id="clust1" class="cluster">
<title>cluster_proc_macro</title>
<polygon fill="none" stroke="black" points="222.61,-17 222.61,-200 686.42,-200 686.42,-17 222.61,-17"/>
<text text-anchor="middle" x="454.51" y="-182.7" font-family="Times,serif" font-size="14.00">proc macro</text>
</g>
<g id="clust2" class="cluster">
<title>cluster_backend</title>
<polygon fill="none" stroke="black" points="480.67,-25 480.67,-167 678.42,-167 678.42,-25 480.67,-25"/>
<text text-anchor="middle" x="579.54" y="-149.7" font-family="Times,serif" font-size="14.00">backend</text>
</g>
<!-- egglog theory\n(Sorts, Functions, Rules) -->
<g id="node1" class="node">
<title>egglog theory\n(Sorts, Functions, Rules)</title>
<ellipse fill="none" stroke="black" cx="107.3" cy="-83" rx="107.3" ry="28.99"/>
<text text-anchor="middle" x="107.3" y="-86.2" font-family="Times,serif" font-size="14.00">egglog theory</text>
<text text-anchor="middle" x="107.3" y="-69.7" font-family="Times,serif" font-size="14.00">(Sorts, Functions, Rules)</text>
</g>
<!-- frontend -->
<g id="node2" class="node">
<title>frontend</title>
<polygon fill="none" stroke="black" points="292.36,-101 230.61,-101 230.61,-65 292.36,-65 292.36,-101"/>
<text text-anchor="middle" x="261.48" y="-77.95" font-family="Times,serif" font-size="14.00">frontend</text>
</g>
<!-- egglog theory\n(Sorts, Functions, Rules)&#45;&gt;frontend -->
<g id="edge1" class="edge">
<title>egglog theory\n(Sorts, Functions, Rules)&#45;&gt;frontend</title>
<path fill="none" stroke="black" d="M214.82,-83C216.17,-83 217.51,-83 218.82,-83"/>
<polygon fill="black" stroke="black" points="218.62,-86.5 228.62,-83 218.62,-79.5 218.62,-86.5"/>
</g>
<!-- IR Functions/Tables -->
<g id="node3" class="node">
<title>IR Functions/Tables</title>
<ellipse fill="none" stroke="black" cx="386.51" cy="-51" rx="86.15" ry="18"/>
<text text-anchor="middle" x="386.51" y="-45.95" font-family="Times,serif" font-size="14.00">IR Functions/Tables</text>
</g>
<!-- frontend&#45;&gt;IR Functions/Tables -->
<g id="edge2" class="edge">
<title>frontend&#45;&gt;IR Functions/Tables</title>
<path fill="none" stroke="black" d="M292.58,-75.17C301.05,-72.97 310.62,-70.48 320.31,-67.96"/>
<polygon fill="black" stroke="black" points="320.98,-71.4 329.78,-65.5 319.22,-64.63 320.98,-71.4"/>
</g>
<!-- IR Rules -->
<g id="node4" class="node">
<title>IR Rules</title>
<ellipse fill="none" stroke="black" cx="386.51" cy="-116" rx="43.67" ry="18"/>
<text text-anchor="middle" x="386.51" y="-110.95" font-family="Times,serif" font-size="14.00">IR Rules</text>
</g>
<!-- frontend&#45;&gt;IR Rules -->
<g id="edge3" class="edge">
<title>frontend&#45;&gt;IR Rules</title>
<path fill="none" stroke="black" d="M292.58,-91.07C306.32,-94.76 322.91,-99.21 338.26,-103.33"/>
<polygon fill="black" stroke="black" points="337.12,-106.64 347.69,-105.85 338.94,-99.88 337.12,-106.64"/>
</g>
<!-- determine indices -->
<g id="node5" class="node">
<title>determine indices</title>
<polygon fill="none" stroke="black" points="601.42,-69 488.67,-69 488.67,-33 601.42,-33 601.42,-69"/>
<text text-anchor="middle" x="545.04" y="-45.95" font-family="Times,serif" font-size="14.00">determine indices</text>
</g>
<!-- IR Functions/Tables&#45;&gt;determine indices -->
<g id="edge4" class="edge">
<title>IR Functions/Tables&#45;&gt;determine indices</title>
<path fill="none" stroke="black" d="M473.1,-51C474.39,-51 475.67,-51 476.95,-51"/>
<polygon fill="black" stroke="black" points="476.79,-54.5 486.79,-51 476.79,-47.5 476.79,-54.5"/>
</g>
<!-- preprocess rules -->
<g id="node6" class="node">
<title>preprocess rules</title>
<polygon fill="none" stroke="black" points="596.92,-134 493.17,-134 493.17,-98 596.92,-98 596.92,-134"/>
<text text-anchor="middle" x="545.04" y="-110.95" font-family="Times,serif" font-size="14.00">preprocess rules</text>
</g>
<!-- IR Rules&#45;&gt;preprocess rules -->
<g id="edge5" class="edge">
<title>IR Rules&#45;&gt;preprocess rules</title>
<path fill="none" stroke="black" d="M430.28,-116C446.1,-116 464.37,-116 481.58,-116"/>
<polygon fill="black" stroke="black" points="481.18,-119.5 491.18,-116 481.18,-112.5 481.18,-119.5"/>
</g>
<!-- codegen -->
<g id="node7" class="node">
<title>codegen</title>
<polygon fill="none" stroke="black" points="670.42,-101 609.42,-101 609.42,-65 670.42,-65 670.42,-101"/>
<text text-anchor="middle" x="639.92" y="-77.95" font-family="Times,serif" font-size="14.00">codegen</text>
</g>
<!-- determine indices&#45;&gt;codegen -->
<g id="edge6" class="edge">
<title>determine indices&#45;&gt;codegen</title>
<path fill="none" stroke="black" d="M599.53,-69.43C599.63,-69.46 599.73,-69.5 599.83,-69.53"/>
<polygon fill="black" stroke="black" points="596.98,-72.25 607.57,-72.2 599.26,-65.63 596.98,-72.25"/>
</g>
<!-- preprocess rules&#45;&gt;codegen -->
<g id="edge7" class="edge">
<title>preprocess rules&#45;&gt;codegen</title>
<path fill="none" stroke="black" d="M597.37,-97.76C597.75,-97.63 598.12,-97.49 598.5,-97.36"/>
<polygon fill="black" stroke="black" points="599.5,-100.72 607.75,-94.07 597.16,-94.12 599.5,-100.72"/>
</g>
<!-- rust code -->
<g id="node8" class="node">
<title>rust code</title>
<ellipse fill="none" stroke="black" cx="746.28" cy="-83" rx="44.7" ry="18"/>
<text text-anchor="middle" x="746.28" y="-77.95" font-family="Times,serif" font-size="14.00">rust code</text>
</g>
<!-- codegen&#45;&gt;rust code -->
<g id="edge8" class="edge">
<title>codegen&#45;&gt;rust code</title>
<path fill="none" stroke="black" d="M670.82,-83C676.92,-83 683.51,-83 690.17,-83"/>
<polygon fill="black" stroke="black" points="689.85,-86.5 699.85,-83 689.85,-79.5 689.85,-86.5"/>
</g>
<!-- rustc -->
<g id="node9" class="node">
<title>rustc</title>
<polygon fill="none" stroke="black" points="860.14,-68 806.14,-68 806.14,-32 860.14,-32 860.14,-68"/>
<text text-anchor="middle" x="833.14" y="-44.95" font-family="Times,serif" font-size="14.00">rustc</text>
</g>
<!-- rust code&#45;&gt;rustc -->
<g id="edge9" class="edge">
<title>rust code&#45;&gt;rustc</title>
<path fill="none" stroke="black" d="M779.36,-70.52C784.55,-68.51 789.95,-66.41 795.24,-64.35"/>
<polygon fill="black" stroke="black" points="796.35,-67.67 804.41,-60.79 793.82,-61.15 796.35,-67.67"/>
</g>
<!-- final binary -->
<g id="node11" class="node">
<title>final binary</title>
<ellipse fill="none" stroke="black" cx="922.05" cy="-50" rx="53.91" ry="18"/>
<text text-anchor="middle" x="922.05" y="-44.95" font-family="Times,serif" font-size="14.00">final binary</text>
</g>
<!-- rustc&#45;&gt;final binary -->
<g id="edge11" class="edge">
<title>rustc&#45;&gt;final binary</title>
<path fill="none" stroke="black" d="M860.22,-50C860.37,-50 860.53,-50 860.69,-50"/>
<polygon fill="black" stroke="black" points="856.44,-53.5 866.44,-50 856.44,-46.5 856.44,-53.5"/>
</g>
<!-- usage code -->
<g id="node10" class="node">
<title>usage code</title>
<ellipse fill="none" stroke="black" cx="746.28" cy="-18" rx="51.86" ry="18"/>
<text text-anchor="middle" x="746.28" y="-12.95" font-family="Times,serif" font-size="14.00">usage code</text>
</g>
<!-- usage code&#45;&gt;rustc -->
<g id="edge10" class="edge">
<title>usage code&#45;&gt;rustc</title>
<path fill="none" stroke="black" d="M782.29,-31.2C786.58,-32.82 790.98,-34.48 795.3,-36.11"/>
<polygon fill="black" stroke="black" points="793.77,-39.27 804.36,-39.52 796.24,-32.72 793.77,-39.27"/>
</g>
</g>
</svg>
