<?xml version="1.0" encoding="UTF-8" standalone="no"?>
<!DOCTYPE svg PUBLIC "-//W3C//DTD SVG 1.1//EN"
 "http://www.w3.org/Graphics/SVG/1.1/DTD/svg11.dtd">
<!-- Generated by graphviz version 10.0.1 (0)
 -->
<!-- Title: G Pages: 1 -->
<svg width="544pt" height="635pt"
 viewBox="0.00 0.00 544.00 635.00" xmlns="http://www.w3.org/2000/svg" xmlns:xlink="http://www.w3.org/1999/xlink">
<g id="graph0" class="graph" transform="scale(1 1) rotate(0) translate(4 631)">
<title>G</title>
<polygon fill="white" stroke="none" points="-4,4 -4,-631 540,-631 540,4 -4,4"/>
<g id="clust1" class="cluster">
<title>cluster_shift</title>
<polygon fill="none" stroke="black" points="8,-8 8,-267 528,-267 528,-8 8,-8"/>
<text text-anchor="middle" x="268" y="-249.7" font-family="Times,serif" font-size="14.00">apply: x * 2 = x &lt;&lt; 1</text>
</g>
<g id="clust2" class="cluster">
<title>cluster_dist</title>
<polygon fill="none" stroke="black" points="8,-275 8,-480 528,-480 528,-275 8,-275"/>
<text text-anchor="middle" x="268" y="-462.7" font-family="Times,serif" font-size="14.00">apply: (x + y) * z = x * z + y * z</text>
</g>
<g id="clust3" class="cluster">
<title>cluster_initial</title>
<polygon fill="none" stroke="black" points="8,-488 8,-619 528,-619 528,-488 8,-488"/>
<text text-anchor="middle" x="268" y="-601.7" font-family="Times,serif" font-size="14.00">initial: (a + 2) * c</text>
</g>
<!-- lit2_1 -->
<g id="node1" class="node">
<title>lit2_1</title>
<polygon fill="none" stroke="black" points="70,-116 16,-116 16,-80 70,-80 70,-116"/>
<text text-anchor="middle" x="43" y="-93.33" font-family="Times,serif" font-size="14.00">2</text>
</g>
<!-- elit2_1 -->
<g id="node9" class="node">
<title>elit2_1</title>
<ellipse fill="none" stroke="black" cx="133" cy="-98" rx="27" ry="18"/>
</g>
<!-- lit2_1&#45;&gt;elit2_1 -->
<g id="edge1" class="edge">
<title>lit2_1&#45;&gt;elit2_1</title>
<path fill="none" stroke="black" d="M70.4,-98C77.89,-98 86.18,-98 94.2,-98"/>
<polygon fill="black" stroke="black" points="94.1,-101.5 104.1,-98 94.1,-94.5 94.1,-101.5"/>
</g>
<!-- lit1_1 -->
<g id="node2" class="node">
<title>lit1_1</title>
<polygon fill="none" stroke="orange" points="70,-234 16,-234 16,-198 70,-198 70,-234"/>
<text text-anchor="middle" x="43" y="-211.32" font-family="Times,serif" font-size="14.00">1</text>
</g>
<!-- elit1_1 -->
<g id="node10" class="node">
<title>elit1_1</title>
<ellipse fill="none" stroke="orange" cx="133" cy="-216" rx="27" ry="18"/>
</g>
<!-- lit1_1&#45;&gt;elit1_1 -->
<g id="edge2" class="edge">
<title>lit1_1&#45;&gt;elit1_1</title>
<path fill="none" stroke="orange" d="M70.4,-216C77.89,-216 86.18,-216 94.2,-216"/>
<polygon fill="orange" stroke="orange" points="94.1,-219.5 104.1,-216 94.1,-212.5 94.1,-219.5"/>
</g>
<!-- add_a_2_1 -->
<g id="node3" class="node">
<title>add_a_2_1</title>
<polygon fill="none" stroke="black" points="250,-52 196,-52 196,-16 250,-16 250,-52"/>
<text text-anchor="middle" x="223" y="-29.32" font-family="Times,serif" font-size="14.00">+</text>
</g>
<!-- eadd_a_2_1 -->
<g id="node11" class="node">
<title>eadd_a_2_1</title>
<ellipse fill="none" stroke="black" cx="313" cy="-34" rx="27" ry="18"/>
</g>
<!-- add_a_2_1&#45;&gt;eadd_a_2_1 -->
<g id="edge3" class="edge">
<title>add_a_2_1&#45;&gt;eadd_a_2_1</title>
<path fill="none" stroke="black" d="M250.4,-34C257.89,-34 266.18,-34 274.2,-34"/>
<polygon fill="black" stroke="black" points="274.1,-37.5 284.1,-34 274.1,-30.5 274.1,-37.5"/>
</g>
<!-- mul_c_1 -->
<g id="node4" class="node">
<title>mul_c_1</title>
<polygon fill="none" stroke="black" points="430,-52 376,-52 376,-16 430,-16 430,-52"/>
<text text-anchor="middle" x="403" y="-29.32" font-family="Times,serif" font-size="14.00">*</text>
</g>
<!-- emul_c_1 -->
<g id="node12" class="node">
<title>emul_c_1</title>
<ellipse fill="none" stroke="black" cx="493" cy="-61" rx="27" ry="18"/>
</g>
<!-- mul_c_1&#45;&gt;emul_c_1 -->
<g id="edge4" class="edge">
<title>mul_c_1&#45;&gt;emul_c_1</title>
<path fill="none" stroke="black" d="M430.4,-42.1C438.8,-44.68 448.23,-47.57 457.13,-50.3"/>
<polygon fill="black" stroke="black" points="455.98,-53.61 466.57,-53.2 458.03,-46.92 455.98,-53.61"/>
</g>
<!-- mul_a_c_1 -->
<g id="node5" class="node">
<title>mul_a_c_1</title>
<polygon fill="none" stroke="black" points="250,-106 196,-106 196,-70 250,-70 250,-106"/>
<text text-anchor="middle" x="223" y="-83.33" font-family="Times,serif" font-size="14.00">*</text>
</g>
<!-- emul_a_c_1 -->
<g id="node16" class="node">
<title>emul_a_c_1</title>
<ellipse fill="none" stroke="black" cx="313" cy="-88" rx="27" ry="18"/>
</g>
<!-- mul_a_c_1&#45;&gt;emul_a_c_1 -->
<g id="edge13" class="edge">
<title>mul_a_c_1&#45;&gt;emul_a_c_1</title>
<path fill="none" stroke="black" d="M250.4,-88C257.89,-88 266.18,-88 274.2,-88"/>
<polygon fill="black" stroke="black" points="274.1,-91.5 284.1,-88 274.1,-84.5 274.1,-91.5"/>
</g>
<!-- mul_2_c_1 -->
<g id="node6" class="node">
<title>mul_2_c_1</title>
<polygon fill="none" stroke="black" points="250,-160 196,-160 196,-124 250,-124 250,-160"/>
<text text-anchor="middle" x="223" y="-137.32" font-family="Times,serif" font-size="14.00">*</text>
</g>
<!-- emul_2_c_1 -->
<g id="node14" class="node">
<title>emul_2_c_1</title>
<ellipse fill="none" stroke="black" cx="313" cy="-216" rx="27" ry="18"/>
</g>
<!-- mul_2_c_1&#45;&gt;emul_2_c_1 -->
<g id="edge7" class="edge">
<title>mul_2_c_1&#45;&gt;emul_2_c_1</title>
<path fill="none" stroke="black" d="M245.75,-160.29C258.24,-170.79 273.98,-184.02 286.98,-194.96"/>
<polygon fill="black" stroke="black" points="284.4,-197.36 294.31,-201.12 288.91,-192.01 284.4,-197.36"/>
</g>
<!-- add_dist_1 -->
<g id="node7" class="node">
<title>add_dist_1</title>
<polygon fill="none" stroke="black" points="430,-106 376,-106 376,-70 430,-70 430,-106"/>
<text text-anchor="middle" x="403" y="-83.33" font-family="Times,serif" font-size="14.00">+</text>
</g>
<!-- add_dist_1&#45;&gt;emul_c_1 -->
<g id="edge16" class="edge">
<title>add_dist_1&#45;&gt;emul_c_1</title>
<path fill="none" stroke="black" d="M430.4,-79.9C438.8,-77.32 448.23,-74.43 457.13,-71.7"/>
<polygon fill="black" stroke="black" points="458.03,-75.08 466.57,-68.8 455.98,-68.39 458.03,-75.08"/>
</g>
<!-- c_shift_1_1 -->
<g id="node8" class="node">
<title>c_shift_1_1</title>
<polygon fill="none" stroke="orange" points="250,-234 196,-234 196,-198 250,-198 250,-234"/>
<text text-anchor="middle" x="223" y="-211.32" font-family="Times,serif" font-size="14.00">&lt;&lt;</text>
</g>
<!-- c_shift_1_1&#45;&gt;emul_2_c_1 -->
<g id="edge10" class="edge">
<title>c_shift_1_1&#45;&gt;emul_2_c_1</title>
<path fill="none" stroke="orange" d="M250.4,-216C257.89,-216 266.18,-216 274.2,-216"/>
<polygon fill="orange" stroke="orange" points="274.1,-219.5 284.1,-216 274.1,-212.5 274.1,-219.5"/>
</g>
<!-- elit2_1&#45;&gt;add_a_2_1 -->
<g id="edge17" class="edge">
<title>elit2_1&#45;&gt;add_a_2_1</title>
<path fill="none" stroke="black" d="M151.81,-85.05C162.13,-77.54 175.48,-67.83 187.77,-58.9"/>
<polygon fill="black" stroke="black" points="189.63,-61.87 195.66,-53.16 185.51,-56.21 189.63,-61.87"/>
</g>
<!-- elit2_1&#45;&gt;mul_2_c_1 -->
<g id="edge6" class="edge">
<title>elit2_1&#45;&gt;mul_2_c_1</title>
<path fill="none" stroke="black" d="M155.3,-108.65C164.38,-113.19 175.24,-118.62 185.53,-123.76"/>
<polygon fill="black" stroke="black" points="183.68,-126.75 194.19,-128.09 186.81,-120.49 183.68,-126.75"/>
</g>
<!-- elit1_1&#45;&gt;c_shift_1_1 -->
<g id="edge9" class="edge">
<title>elit1_1&#45;&gt;c_shift_1_1</title>
<path fill="none" stroke="orange" d="M160.4,-216C167.89,-216 176.18,-216 184.2,-216"/>
<polygon fill="orange" stroke="orange" points="184.1,-219.5 194.1,-216 184.1,-212.5 184.1,-219.5"/>
</g>
<!-- eadd_a_2_1&#45;&gt;mul_c_1 -->
<g id="edge19" class="edge">
<title>eadd_a_2_1&#45;&gt;mul_c_1</title>
<path fill="none" stroke="black" d="M340.4,-34C347.89,-34 356.18,-34 364.2,-34"/>
<polygon fill="black" stroke="black" points="364.1,-37.5 374.1,-34 364.1,-30.5 364.1,-37.5"/>
</g>
<!-- c_1 -->
<g id="node13" class="node">
<title>c_1</title>
<ellipse fill="none" stroke="black" cx="133" cy="-152" rx="27" ry="18"/>
<text text-anchor="middle" x="133" y="-147.32" font-family="Times,serif" font-size="14.00">c</text>
</g>
<!-- c_1&#45;&gt;mul_c_1 -->
<g id="edge20" class="edge">
<title>c_1&#45;&gt;mul_c_1</title>
<path fill="none" stroke="black" d="M157.02,-160.9C180.68,-168.77 218.42,-177.75 250,-169 294.96,-156.55 306.24,-147.19 340,-115 358.76,-97.12 358.28,-85.92 376.44,-61.36"/>
<polygon fill="black" stroke="black" points="379.04,-63.72 382.44,-53.68 373.52,-59.41 379.04,-63.72"/>
</g>
<!-- c_1&#45;&gt;mul_a_c_1 -->
<g id="edge11" class="edge">
<title>c_1&#45;&gt;mul_a_c_1</title>
<path fill="none" stroke="black" d="M151.81,-139.05C162.13,-131.54 175.48,-121.83 187.77,-112.9"/>
<polygon fill="black" stroke="black" points="189.63,-115.87 195.66,-107.16 185.51,-110.21 189.63,-115.87"/>
</g>
<!-- c_1&#45;&gt;mul_2_c_1 -->
<g id="edge5" class="edge">
<title>c_1&#45;&gt;mul_2_c_1</title>
<path fill="none" stroke="black" d="M159.93,-149.05C167.58,-148.18 176.11,-147.21 184.34,-146.28"/>
<polygon fill="black" stroke="black" points="184.6,-149.77 194.15,-145.17 183.81,-142.82 184.6,-149.77"/>
</g>
<!-- c_1&#45;&gt;c_shift_1_1 -->
<g id="edge8" class="edge">
<title>c_1&#45;&gt;c_shift_1_1</title>
<path fill="none" stroke="orange" d="M151.81,-164.95C162.13,-172.46 175.48,-182.17 187.77,-191.1"/>
<polygon fill="orange" stroke="orange" points="185.51,-193.79 195.66,-196.84 189.63,-188.13 185.51,-193.79"/>
</g>
<!-- emul_2_c_1&#45;&gt;add_dist_1 -->
<g id="edge15" class="edge">
<title>emul_2_c_1&#45;&gt;add_dist_1</title>
<path fill="none" stroke="black" d="M327.31,-200.32C331.49,-195.21 336.05,-189.45 340,-184 356.1,-161.82 372.88,-135.61 384.92,-116.19"/>
<polygon fill="black" stroke="black" points="387.87,-118.08 390.13,-107.73 381.91,-114.41 387.87,-118.08"/>
</g>
<!-- a_1 -->
<g id="node15" class="node">
<title>a_1</title>
<ellipse fill="none" stroke="black" cx="133" cy="-44" rx="27" ry="18"/>
<text text-anchor="middle" x="133" y="-39.33" font-family="Times,serif" font-size="14.00">a</text>
</g>
<!-- a_1&#45;&gt;add_a_2_1 -->
<g id="edge18" class="edge">
<title>a_1&#45;&gt;add_a_2_1</title>
<path fill="none" stroke="black" d="M159.93,-41.05C167.58,-40.18 176.11,-39.21 184.34,-38.28"/>
<polygon fill="black" stroke="black" points="184.6,-41.77 194.15,-37.17 183.81,-34.82 184.6,-41.77"/>
</g>
<!-- a_1&#45;&gt;mul_a_c_1 -->
<g id="edge12" class="edge">
<title>a_1&#45;&gt;mul_a_c_1</title>
<path fill="none" stroke="black" d="M155.3,-54.65C164.38,-59.19 175.24,-64.62 185.53,-69.76"/>
<polygon fill="black" stroke="black" points="183.68,-72.75 194.19,-74.09 186.81,-66.49 183.68,-72.75"/>
</g>
<!-- emul_a_c_1&#45;&gt;add_dist_1 -->
<g id="edge14" class="edge">
<title>emul_a_c_1&#45;&gt;add_dist_1</title>
<path fill="none" stroke="black" d="M340.4,-88C347.89,-88 356.18,-88 364.2,-88"/>
<polygon fill="black" stroke="black" points="364.1,-91.5 374.1,-88 364.1,-84.5 364.1,-91.5"/>
</g>
<!-- lit2_0 -->
<g id="node17" class="node">
<title>lit2_0</title>
<polygon fill="none" stroke="black" points="70,-319 16,-319 16,-283 70,-283 70,-319"/>
<text text-anchor="middle" x="43" y="-296.32" font-family="Times,serif" font-size="14.00">2</text>
</g>
<!-- elit2_0 -->
<g id="node23" class="node">
<title>elit2_0</title>
<ellipse fill="none" stroke="black" cx="133" cy="-301" rx="27" ry="18"/>
</g>
<!-- lit2_0&#45;&gt;elit2_0 -->
<g id="edge21" class="edge">
<title>lit2_0&#45;&gt;elit2_0</title>
<path fill="none" stroke="black" d="M70.4,-301C77.89,-301 86.18,-301 94.2,-301"/>
<polygon fill="black" stroke="black" points="94.1,-304.5 104.1,-301 94.1,-297.5 94.1,-304.5"/>
</g>
<!-- add_a_2_0 -->
<g id="node18" class="node">
<title>add_a_2_0</title>
<polygon fill="none" stroke="black" points="250,-319 196,-319 196,-283 250,-283 250,-319"/>
<text text-anchor="middle" x="223" y="-296.32" font-family="Times,serif" font-size="14.00">+</text>
</g>
<!-- eadd_a_2_0 -->
<g id="node24" class="node">
<title>eadd_a_2_0</title>
<ellipse fill="none" stroke="black" cx="313" cy="-301" rx="27" ry="18"/>
</g>
<!-- add_a_2_0&#45;&gt;eadd_a_2_0 -->
<g id="edge22" class="edge">
<title>add_a_2_0&#45;&gt;eadd_a_2_0</title>
<path fill="none" stroke="black" d="M250.4,-301C257.89,-301 266.18,-301 274.2,-301"/>
<polygon fill="black" stroke="black" points="274.1,-304.5 284.1,-301 274.1,-297.5 274.1,-304.5"/>
</g>
<!-- mul_c_0 -->
<g id="node19" class="node">
<title>mul_c_0</title>
<polygon fill="none" stroke="black" points="430,-319 376,-319 376,-283 430,-283 430,-319"/>
<text text-anchor="middle" x="403" y="-296.32" font-family="Times,serif" font-size="14.00">*</text>
</g>
<!-- emul_c_0 -->
<g id="node25" class="node">
<title>emul_c_0</title>
<ellipse fill="none" stroke="black" cx="493" cy="-328" rx="27" ry="18"/>
</g>
<!-- mul_c_0&#45;&gt;emul_c_0 -->
<g id="edge23" class="edge">
<title>mul_c_0&#45;&gt;emul_c_0</title>
<path fill="none" stroke="black" d="M430.4,-309.1C438.8,-311.68 448.23,-314.57 457.13,-317.3"/>
<polygon fill="black" stroke="black" points="455.98,-320.61 466.57,-320.2 458.03,-313.92 455.98,-320.61"/>
</g>
<!-- mul_a_c_0 -->
<g id="node20" class="node">
<title>mul_a_c_0</title>
<polygon fill="none" stroke="orange" points="250,-427 196,-427 196,-391 250,-391 250,-427"/>
<text text-anchor="middle" x="223" y="-404.32" font-family="Times,serif" font-size="14.00">*</text>
</g>
<!-- emul_a_c_0 -->
<g id="node29" class="node">
<title>emul_a_c_0</title>
<ellipse fill="none" stroke="orange" cx="313" cy="-409" rx="27" ry="18"/>
</g>
<!-- mul_a_c_0&#45;&gt;emul_a_c_0 -->
<g id="edge29" class="edge">
<title>mul_a_c_0&#45;&gt;emul_a_c_0</title>
<path fill="none" stroke="orange" d="M250.4,-409C257.89,-409 266.18,-409 274.2,-409"/>
<polygon fill="orange" stroke="orange" points="274.1,-412.5 284.1,-409 274.1,-405.5 274.1,-412.5"/>
</g>
<!-- mul_2_c_0 -->
<g id="node21" class="node">
<title>mul_2_c_0</title>
<polygon fill="none" stroke="orange" points="250,-373 196,-373 196,-337 250,-337 250,-373"/>
<text text-anchor="middle" x="223" y="-350.32" font-family="Times,serif" font-size="14.00">*</text>
</g>
<!-- emul_2_c_0 -->
<g id="node27" class="node">
<title>emul_2_c_0</title>
<ellipse fill="none" stroke="orange" cx="313" cy="-355" rx="27" ry="18"/>
</g>
<!-- mul_2_c_0&#45;&gt;emul_2_c_0 -->
<g id="edge26" class="edge">
<title>mul_2_c_0&#45;&gt;emul_2_c_0</title>
<path fill="none" stroke="orange" d="M250.4,-355C257.89,-355 266.18,-355 274.2,-355"/>
<polygon fill="orange" stroke="orange" points="274.1,-358.5 284.1,-355 274.1,-351.5 274.1,-358.5"/>
</g>
<!-- add_dist_0 -->
<g id="node22" class="node">
<title>add_dist_0</title>
<polygon fill="none" stroke="orange" points="430,-373 376,-373 376,-337 430,-337 430,-373"/>
<text text-anchor="middle" x="403" y="-350.32" font-family="Times,serif" font-size="14.00">+</text>
</g>
<!-- add_dist_0&#45;&gt;emul_c_0 -->
<g id="edge32" class="edge">
<title>add_dist_0&#45;&gt;emul_c_0</title>
<path fill="none" stroke="orange" d="M430.4,-346.9C438.8,-344.32 448.23,-341.43 457.13,-338.7"/>
<polygon fill="orange" stroke="orange" points="458.03,-342.08 466.57,-335.8 455.98,-335.39 458.03,-342.08"/>
</g>
<!-- elit2_0&#45;&gt;add_a_2_0 -->
<g id="edge33" class="edge">
<title>elit2_0&#45;&gt;add_a_2_0</title>
<path fill="none" stroke="black" d="M160.4,-301C167.89,-301 176.18,-301 184.2,-301"/>
<polygon fill="black" stroke="black" points="184.1,-304.5 194.1,-301 184.1,-297.5 184.1,-304.5"/>
</g>
<!-- elit2_0&#45;&gt;mul_2_c_0 -->
<g id="edge25" class="edge">
<title>elit2_0&#45;&gt;mul_2_c_0</title>
<path fill="none" stroke="orange" d="M153.53,-312.98C163.09,-318.85 174.9,-326.1 186.01,-332.91"/>
<polygon fill="orange" stroke="orange" points="183.87,-335.71 194.23,-337.96 187.53,-329.74 183.87,-335.71"/>
</g>
<!-- eadd_a_2_0&#45;&gt;mul_c_0 -->
<g id="edge35" class="edge">
<title>eadd_a_2_0&#45;&gt;mul_c_0</title>
<path fill="none" stroke="black" d="M340.4,-301C347.89,-301 356.18,-301 364.2,-301"/>
<polygon fill="black" stroke="black" points="364.1,-304.5 374.1,-301 364.1,-297.5 364.1,-304.5"/>
</g>
<!-- c_0 -->
<g id="node26" class="node">
<title>c_0</title>
<ellipse fill="none" stroke="black" cx="133" cy="-409" rx="27" ry="18"/>
<text text-anchor="middle" x="133" y="-404.32" font-family="Times,serif" font-size="14.00">c</text>
</g>
<!-- c_0&#45;&gt;mul_c_0 -->
<g id="edge36" class="edge">
<title>c_0&#45;&gt;mul_c_0</title>
<path fill="none" stroke="black" d="M154.72,-420.34C194.66,-440.5 283.38,-476.81 340,-436 378.4,-408.32 353.53,-375.79 376.84,-329.13"/>
<polygon fill="black" stroke="black" points="379.79,-331.04 381.64,-320.61 373.69,-327.61 379.79,-331.04"/>
</g>
<!-- c_0&#45;&gt;mul_a_c_0 -->
<g id="edge27" class="edge">
<title>c_0&#45;&gt;mul_a_c_0</title>
<path fill="none" stroke="orange" d="M160.4,-409C167.89,-409 176.18,-409 184.2,-409"/>
<polygon fill="orange" stroke="orange" points="184.1,-412.5 194.1,-409 184.1,-405.5 184.1,-412.5"/>
</g>
<!-- c_0&#45;&gt;mul_2_c_0 -->
<g id="edge24" class="edge">
<title>c_0&#45;&gt;mul_2_c_0</title>
<path fill="none" stroke="orange" d="M153.53,-397.02C163.09,-391.15 174.9,-383.9 186.01,-377.09"/>
<polygon fill="orange" stroke="orange" points="187.53,-380.26 194.23,-372.04 183.87,-374.29 187.53,-380.26"/>
</g>
<!-- emul_2_c_0&#45;&gt;add_dist_0 -->
<g id="edge31" class="edge">
<title>emul_2_c_0&#45;&gt;add_dist_0</title>
<path fill="none" stroke="orange" d="M340.4,-355C347.89,-355 356.18,-355 364.2,-355"/>
<polygon fill="orange" stroke="orange" points="364.1,-358.5 374.1,-355 364.1,-351.5 364.1,-358.5"/>
</g>
<!-- a_0 -->
<g id="node28" class="node">
<title>a_0</title>
<ellipse fill="none" stroke="black" cx="133" cy="-355" rx="27" ry="18"/>
<text text-anchor="middle" x="133" y="-350.32" font-family="Times,serif" font-size="14.00">a</text>
</g>
<!-- a_0&#45;&gt;add_a_2_0 -->
<g id="edge34" class="edge">
<title>a_0&#45;&gt;add_a_2_0</title>
<path fill="none" stroke="black" d="M153.53,-343.02C163.09,-337.15 174.9,-329.9 186.01,-323.09"/>
<polygon fill="black" stroke="black" points="187.53,-326.26 194.23,-318.04 183.87,-320.29 187.53,-326.26"/>
</g>
<!-- a_0&#45;&gt;mul_a_c_0 -->
<g id="edge28" class="edge">
<title>a_0&#45;&gt;mul_a_c_0</title>
<path fill="none" stroke="orange" d="M153.53,-366.98C163.09,-372.85 174.9,-380.1 186.01,-386.91"/>
<polygon fill="orange" stroke="orange" points="183.87,-389.71 194.23,-391.96 187.53,-383.74 183.87,-389.71"/>
</g>
<!-- emul_a_c_0&#45;&gt;add_dist_0 -->
<g id="edge30" class="edge">
<title>emul_a_c_0&#45;&gt;add_dist_0</title>
<path fill="none" stroke="orange" d="M333.53,-397.02C343.09,-391.15 354.9,-383.9 366.01,-377.09"/>
<polygon fill="orange" stroke="orange" points="367.53,-380.26 374.23,-372.04 363.87,-374.29 367.53,-380.26"/>
</g>
<!-- lit2 -->
<g id="node30" class="node">
<title>lit2</title>
<polygon fill="none" stroke="black" points="70,-532 16,-532 16,-496 70,-496 70,-532"/>
<text text-anchor="middle" x="43" y="-509.32" font-family="Times,serif" font-size="14.00">2</text>
</g>
<!-- elit2 -->
<g id="node33" class="node">
<title>elit2</title>
<ellipse fill="none" stroke="black" cx="133" cy="-514" rx="27" ry="18"/>
</g>
<!-- lit2&#45;&gt;elit2 -->
<g id="edge37" class="edge">
<title>lit2&#45;&gt;elit2</title>
<path fill="none" stroke="black" d="M70.4,-514C77.89,-514 86.18,-514 94.2,-514"/>
<polygon fill="black" stroke="black" points="94.1,-517.5 104.1,-514 94.1,-510.5 94.1,-517.5"/>
</g>
<!-- add_a_2 -->
<g id="node31" class="node">
<title>add_a_2</title>
<polygon fill="none" stroke="black" points="250,-532 196,-532 196,-496 250,-496 250,-532"/>
<text text-anchor="middle" x="223" y="-509.32" font-family="Times,serif" font-size="14.00">+</text>
</g>
<!-- eadd_a_2 -->
<g id="node34" class="node">
<title>eadd_a_2</title>
<ellipse fill="none" stroke="black" cx="313" cy="-514" rx="27" ry="18"/>
</g>
<!-- add_a_2&#45;&gt;eadd_a_2 -->
<g id="edge38" class="edge">
<title>add_a_2&#45;&gt;eadd_a_2</title>
<path fill="none" stroke="black" d="M250.4,-514C257.89,-514 266.18,-514 274.2,-514"/>
<polygon fill="black" stroke="black" points="274.1,-517.5 284.1,-514 274.1,-510.5 274.1,-517.5"/>
</g>
<!-- mul_c -->
<g id="node32" class="node">
<title>mul_c</title>
<polygon fill="none" stroke="black" points="430,-559 376,-559 376,-523 430,-523 430,-559"/>
<text text-anchor="middle" x="403" y="-536.33" font-family="Times,serif" font-size="14.00">*</text>
</g>
<!-- emul_c -->
<g id="node35" class="node">
<title>emul_c</title>
<ellipse fill="none" stroke="black" cx="493" cy="-541" rx="27" ry="18"/>
</g>
<!-- mul_c&#45;&gt;emul_c -->
<g id="edge39" class="edge">
<title>mul_c&#45;&gt;emul_c</title>
<path fill="none" stroke="black" d="M430.4,-541C437.89,-541 446.18,-541 454.2,-541"/>
<polygon fill="black" stroke="black" points="454.1,-544.5 464.1,-541 454.1,-537.5 454.1,-544.5"/>
</g>
<!-- elit2&#45;&gt;add_a_2 -->
<g id="edge40" class="edge">
<title>elit2&#45;&gt;add_a_2</title>
<path fill="none" stroke="black" d="M160.4,-514C167.89,-514 176.18,-514 184.2,-514"/>
<polygon fill="black" stroke="black" points="184.1,-517.5 194.1,-514 184.1,-510.5 184.1,-517.5"/>
</g>
<!-- eadd_a_2&#45;&gt;mul_c -->
<g id="edge42" class="edge">
<title>eadd_a_2&#45;&gt;mul_c</title>
<path fill="none" stroke="black" d="M338.05,-521.38C346.3,-523.91 355.73,-526.8 364.78,-529.58"/>
<polygon fill="black" stroke="black" points="363.47,-532.84 374.06,-532.43 365.53,-526.15 363.47,-532.84"/>
</g>
<!-- a -->
<g id="node36" class="node">
<title>a</title>
<ellipse fill="none" stroke="black" cx="133" cy="-568" rx="27" ry="18"/>
<text text-anchor="middle" x="133" y="-563.33" font-family="Times,serif" font-size="14.00">a</text>
</g>
<!-- a&#45;&gt;add_a_2 -->
<g id="edge41" class="edge">
<title>a&#45;&gt;add_a_2</title>
<path fill="none" stroke="black" d="M153.53,-556.02C163.09,-550.15 174.9,-542.9 186.01,-536.09"/>
<polygon fill="black" stroke="black" points="187.53,-539.26 194.23,-531.04 183.87,-533.29 187.53,-539.26"/>
</g>
<!-- c -->
<g id="node37" class="node">
<title>c</title>
<ellipse fill="none" stroke="black" cx="313" cy="-568" rx="27" ry="18"/>
<text text-anchor="middle" x="313" y="-563.33" font-family="Times,serif" font-size="14.00">c</text>
</g>
<!-- c&#45;&gt;mul_c -->
<g id="edge43" class="edge">
<title>c&#45;&gt;mul_c</title>
<path fill="none" stroke="black" d="M338.05,-560.62C346.3,-558.09 355.73,-555.2 364.78,-552.42"/>
<polygon fill="black" stroke="black" points="365.53,-555.85 374.06,-549.57 363.47,-549.16 365.53,-555.85"/>
</g>
</g>
</svg>
